<?xml version="1.0" encoding="utf-8"?>
<!-- Generator: Adobe Illustrator 24.0.2, SVG Export Plug-In . SVG Version: 6.00 Build 0)  -->
<svg version="1.1" id="Layer_1" xmlns="http://www.w3.org/2000/svg" xmlns:xlink="http://www.w3.org/1999/xlink" x="0px" y="0px"
	 viewBox="0 0 3750 2500" style="enable-background:new 0 0 3750 2500;" xml:space="preserve">
<style type="text/css">
	.st0{fill:#FFFFFF;}
</style>
<path class="st0" d="M3148.3,1821.2c-7.5,0-13.6-6.1-13.6-13.6c0-7.5,6.1-13.6,13.6-13.6h346c7.5,0,13.6,6.1,13.6,13.6
	c0,7.5-6.1,13.6-13.6,13.6H3148.3z M2425.4,1821.2c-7.5,0-13.6-6.1-13.6-13.6c0-7.5,6.1-13.6,13.6-13.6h627.7
	c7.5,0,13.6,6.1,13.6,13.6c0,7.5-6.1,13.6-13.6,13.6H2425.4z M1098.2,1821.2c-7.5,0-13.6-6.1-13.6-13.6c0-7.5,6.1-13.6,13.6-13.6
	h1225.7c7.5,0,13.6,6.1,13.6,13.6c0,7.5-6.1,13.6-13.6,13.6H1098.2z M444.7,1821.1c-7.5,0-13.6-6.1-13.5-13.6
	c0-7.5,6.1-13.6,13.6-13.5l537.8,3.9c7.5,0,13.6,6.1,13.5,13.6c0,7.5-6.1,13.6-13.6,13.5L444.7,1821.1z M255.6,1821.2
	c-7.5,0-13.6-6.1-13.6-13.6c0-7.5,6.1-13.6,13.6-13.6h97.8c7.5,0,13.6,6.1,13.6,13.6c0,7.5-6.1,13.6-13.6,13.6H255.6z M691,1887.3
	c7.5,0,13.6,6.1,13.6,13.6c0,7.5-6.1,13.6-13.6,13.6H336.9c-7.5,0-13.6-6.1-13.6-13.6c0-7.5,6.1-13.6,13.6-13.6H691z M1352.2,1887.3
	c7.5,0,13.6,6.1,13.6,13.6c0,7.5-6.1,13.6-13.6,13.6H789.3c-7.5,0-13.6-6.1-13.6-13.6c0-7.5,6.1-13.6,13.6-13.6H1352.2z
	 M1960.3,1887.3c7.5,0,13.6,6.1,13.6,13.6c0,7.5-6.1,13.6-13.6,13.6h-511.6c-7.5,0-13.6-6.1-13.6-13.6c0-7.5,6.1-13.6,13.6-13.6
	H1960.3z M2612.9,1887.3c7.5,0,13.6,6.1,13.6,13.6c0,7.5-6.1,13.6-13.6,13.6h-572.6c-7.5,0-13.6-6.1-13.6-13.6
	c0-7.5,6.1-13.6,13.6-13.6H2612.9z M3233.5,1887.3c7.5,0,13.6,6,13.6,13.5c0,7.5-6,13.6-13.5,13.6l-510.8,3.9
	c-7.5,0-13.6-6-13.6-13.5c0-7.5,6-13.6,13.5-13.6L3233.5,1887.3z M3413.1,1887.3c7.5,0,13.6,6.1,13.6,13.6c0,7.5-6.1,13.6-13.6,13.6
	h-92.9c-7.5,0-13.6-6.1-13.6-13.6c0-7.5,6.1-13.6,13.6-13.6H3413.1z M2350.7,2008.3c-7.5,0-13.6-6.1-13.6-13.6
	c0-7.5,6.1-13.6,13.6-13.6h923.9c7.5,0,13.6,6.1,13.6,13.6c0,7.5-6.1,13.6-13.6,13.6H2350.7z M1203.6,2008.3
	c-7.5,0-13.6-6.1-13.6-13.6c0-7.5,6.1-13.6,13.6-13.6H2263c7.5,0,13.6,6.1,13.6,13.6c0,7.5-6.1,13.6-13.6,13.6H1203.6z
	 M638.8,2008.3c-7.5,0-13.6-6.1-13.5-13.6c0-7.5,6.1-13.6,13.6-13.5l464.8,3.1c7.5,0,13.6,6.1,13.5,13.6c0,7.5-6.1,13.6-13.6,13.5
	L638.8,2008.3z M475.4,2008.3c-7.5,0-13.6-6.1-13.6-13.6c0-7.5,6.1-13.6,13.6-13.6h84.5c7.5,0,13.6,6.1,13.6,13.6
	c0,7.5-6.1,13.6-13.6,13.6H475.4z M985.2,2074.1c7.5,0,13.6,6.1,13.6,13.6c0,7.5-6.1,13.6-13.6,13.6H719c-7.5,0-13.6-6.1-13.6-13.6
	c0-7.5,6.1-13.6,13.6-13.6H985.2z M1482.1,2074.1c7.5,0,13.6,6.1,13.6,13.6c0,7.5-6.1,13.6-13.6,13.6h-423.1
	c-7.5,0-13.6-6.1-13.6-13.6c0-7.5,6.1-13.6,13.6-13.6H1482.1z M1939.1,2074.1c7.5,0,13.6,6.1,13.6,13.6c0,7.5-6.1,13.6-13.6,13.6
	h-384.5c-7.5,0-13.6-6.1-13.6-13.6c0-7.5,6.1-13.6,13.6-13.6H1939.1z M2429.5,2074.1c7.5,0,13.6,6.1,13.6,13.6
	c0,7.5-6.1,13.6-13.6,13.6h-430.3c-7.5,0-13.6-6.1-13.6-13.6c0-7.5,6.1-13.6,13.6-13.6H2429.5z M2895.9,2074.1
	c7.5-0.1,13.6,6,13.7,13.5c0.1,7.5-6,13.6-13.5,13.7l-383.9,3.9c-7.5,0.1-13.6-6-13.7-13.5c-0.1-7.5,6-13.6,13.5-13.7L2895.9,2074.1
	z M3031,2074.1c7.5,0,13.6,6.1,13.6,13.6c0,7.5-6.1,13.6-13.6,13.6h-69.8c-7.5,0-13.6-6.1-13.6-13.6c0-7.5,6.1-13.6,13.6-13.6H3031z
	 M1587.1,448.2c-1.9-7.3,2.4-14.7,9.6-16.7c7.3-1.9,14.7,2.4,16.7,9.6l82.8,309c1.9,7.3-2.4,14.7-9.6,16.7
	c-7.3,1.9-14.7-2.4-16.7-9.6L1587.1,448.2z M1332.5,557.5c-3.8-6.5-1.5-14.8,5-18.6c6.5-3.8,14.8-1.5,18.6,5l178.4,308.9
	c3.8,6.5,1.5,14.8-5,18.6c-6.5,3.8-14.8,1.5-18.6-5L1332.5,557.5z M1114.8,729c-5.3-5.3-5.3-14,0-19.3c5.3-5.3,14-5.3,19.3,0
	l217.3,217.3c5.3,5.3,5.3,14,0,19.3c-5.3,5.3-14,5.3-19.3,0L1114.8,729z M948.9,951c-6.5-3.8-8.7-12.1-5-18.6
	c3.8-6.5,12.1-8.7,18.6-5l257.5,148.7c6.5,3.8,8.7,12.1,5,18.6c-3.8,6.5-12.1,8.7-18.6,5L948.9,951z M2136.6,441.2
	c1.9-7.3,9.4-11.6,16.7-9.6c7.3,1.9,11.6,9.4,9.6,16.7l-95.7,357.3c-1.9,7.3-9.4,11.6-16.7,9.6c-7.3-1.9-11.6-9.4-9.6-16.7
	L2136.6,441.2z M2394,543.9c3.8-6.5,12.1-8.7,18.6-5c6.5,3.8,8.7,12.1,5,18.6l-194.6,337.1c-3.8,6.5-12.1,8.7-18.6,5
	c-6.5-3.8-8.7-12.1-5-18.6L2394,543.9z M2615.9,709.8c5.3-5.3,14-5.3,19.3,0c5.3,5.3,5.3,14,0,19.3l-195.3,195.3
	c-5.3,5.3-14,5.3-19.3,0c-5.3-5.3-5.3-14,0-19.3L2615.9,709.8z M2671.8,1025.6c-2.2,1.6-5,2.5-7.9,2.5c-7.5,0-13.6-6.1-13.6-13.6
	c0-5.5,3.3-10.3,8-12.4l129.2-74.6c6.5-3.7,14.8-1.5,18.5,5c3.7,6.5,1.5,14.8-5,18.5L2671.8,1025.6z M1861.4,408.5
	c0-7.5,6.1-13.6,13.6-13.6c7.5,0,13.6,6.1,13.6,13.6V720c0,7.5-6.1,13.6-13.6,13.6c-7.5,0-13.6-6.1-13.6-13.6V408.5z M403.1,1641.5
	c-5.5,5.1-14.1,4.8-19.2-0.6c-5.1-5.5-4.8-14.1,0.6-19.2c160.2-150,355.6-259.3,430.7-301.3c14.1-7.9,23.9-13.4,27.7-15.8
	c7.5-4.8,16.3-10.8,25.5-17.2c77.6-53,188.1-128.5,306.1-42.3c105-34.1,139.4-85.1,171.6-132.9c34.2-50.7,66.2-98.3,166-122.8
	c83.9-20.6,134.8-60,177.6-93.1c74.7-57.8,127-98.3,272.3-10.2c34.3,20.8,56.5,38.8,73.5,52.6c9.9,8,17.9,14.5,25.2,18.9v0.1
	c31.6,19.1,54.8,26.1,79.5,33.6c39,11.8,81.8,24.6,165,83.9l0.1,0.1c0.6,0.4,1.9,1.3,3.2,2.1c0.7,0.3,1.4,0.6,2.1,1
	c0.3,0.1,0.6,0.2,0.9,0.2l0.3-0.1l0,0c0.7-0.3,2.1-1.3,3.9-2.5l0.3-0.2c147.4-95.2,236.9-4.8,322.9,82
	c49.9,50.4,98.6,99.5,154.9,104c69.5,5.6,121.1,62.6,171,117.8c33.9,37.5,67.1,74.2,102.8,90.2c84.7,38.1,144.8,86.4,209.8,138.8
	l7.9,6.5c17.1,14.1,64.7,53.3,82.4,64.8c6.3,4.1,8.1,12.6,3.9,18.9c-4.1,6.3-12.6,8.1-18.9,3.9c-18.3-12-67.2-52.2-84.7-66.7
	l-7.7-6.3c-63.7-51.2-122.5-98.6-203.9-135.2c-40.9-18.4-75.9-57.1-111.8-96.8c-46.4-51.2-94.2-104.1-153-108.8
	c-66.4-5.3-118.5-58-172-112c-70.9-71.5-144.4-145.7-253.1-97.8l103.7,21c3.4,0.7,5.7,4,5,7.5c-0.7,3.4-4,5.6-7.5,5l-119.8-24.3
	c-5.6,3.1-11.3,6.5-17.1,10.2c3.1,4.3,5.7,8.8,7.8,13.3l173.8,35.2c3.4,0.7,5.6,4,5,7.5c-0.7,3.4-4,5.6-7.5,5l-166.2-33.7
	c2.4,8.7,3.5,17.6,3.9,26.6c0.8-0.2,1.6-0.2,2.5,0l222.4,45c3.4,0.7,5.7,4,5,7.5c-0.7,3.4-4,5.6-7.5,5l-222.2-45
	c-0.1,7.5-0.5,15.1-0.9,22.6l-0.1,2.5l286.4,58c3.4,0.7,5.7,4,5,7.5c-0.7,3.4-4,5.6-7.5,5l-284.4-57.6c-0.2,8.9,0.1,17.6,1.8,25.7
	l347.6,70.4c3.4,0.7,5.6,4,5,7.5c-0.7,3.4-4,5.6-7.5,5l-340.4-68.9c9.8,19.7,33.1,34.3,86.9,38.7c40.5,3.3,76,11.5,105.9,25.7
	l250.8,50.8c3.4,0.7,5.6,4,5,7.5c-0.7,3.4-4,5.6-7.5,5l-215.7-43.7c2.2,1.7,4.4,3.4,6.6,5.2c9.6,8,18.3,16.9,26.1,26.8l242,49
	c3.4,0.7,5.6,4,5,7.5c-0.7,3.4-4,5.6-7.5,5l-229-46.4c5.5,8.8,10.3,18.3,14.4,28.5c0.5,0,1.1,0,1.6,0.1l275,55.7
	c3.4,0.7,5.6,4,5,7.5c-0.7,3.4-4,5.6-7.5,5l-269.1-54.5c2.8,8.5,5.2,17.4,7.1,26.8l322.4,65.3c3.4,0.7,5.6,4,5,7.5
	c-0.7,3.4-4,5.6-7.5,5l-317.4-64.3c0.6,3.5,1.1,7.1,1.5,10.7c0.7,5.5,1.7,10.7,3.2,15.6l401.7,81.4c3.4,0.7,5.7,4,5,7.5
	c-0.7,3.4-4,5.6-7.5,5l-394-79.8c5.2,11.1,12.3,20.9,20.9,29.6l405,82c3.4,0.7,5.6,4,5,7.5c-0.7,3.4-4,5.6-7.5,5l-382.2-77.4
	c23.3,16.6,52.3,29.3,81.5,41.9l315.6,63.9c3.4,0.7,5.6,4,5,7.5c-0.7,3.4-4,5.6-7.5,5l-55-11.1c-1.3,2.3-4,3.6-6.7,3l-162.6-32.9
	c-2.7-0.5-4.7-2.8-5-5.4l-31.5-6.4c19.8,9.8,38.5,20.8,54.5,34.2c7.4,6.2,14.2,12.9,20.3,20.4c6.2,7.5,11.6,15.7,16,24.5
	c3.3,6.7,0.6,14.9-6.2,18.2c-6.7,3.3-14.9,0.6-18.2-6.2c-3.5-7-7.7-13.4-12.6-19.3c-4.9-6-10.6-11.5-16.8-16.8
	c-25.7-21.6-61.3-36.9-96.8-52.2c-70.5-30.3-140.7-60.5-150.6-141.2c-6.6-53.4-26.2-91.6-57.3-117.3c-31.6-26-75.5-39.9-130-44.3
	c-123.7-9.9-120.8-64.4-117.7-122.1c1.6-30.8,3.3-62.9-23.6-84.5c-3.3-1.7-5.7-3.4-6.8-4.2l-0.1-0.1c-79.5-56.6-120-68.8-157-80
	c-26.3-7.9-51-15.3-85.8-36.4l0,0c-8.6-5.2-17.4-12.4-28.3-21.2c-16.4-13.3-37.9-30.7-70.4-50.4c-73.4-44.5-120-52.2-158.7-41.2
	l163.7,64.2c3.3,1.3,4.9,5,3.6,8.2c-1.3,3.3-5,4.9-8.2,3.6l-175.3-68.8c-0.5-0.2-1-0.5-1.4-0.8c-9.6,4.3-18.9,9.7-28.1,15.8
	l323.7,127.1c3.3,1.3,4.9,5,3.6,8.2c-1.3,3.3-5,4.9-8.2,3.6L1731,899.1c-5.6,4.1-11.3,8.4-17.2,12.9c-1.9,1.5-3.9,3.1-5.8,4.7
	l428.5,168.2c3.3,1.3,4.9,5,3.6,8.2c-1.3,3.3-5,4.9-8.2,3.6l-434.3-170.4c-6,6-11.5,12.7-16,20.4l422,165.6c3.3,1.3,4.9,5,3.6,8.2
	c-1.3,3.3-5,4.9-8.2,3.6l-422.9-166c-2.2,5.5-3.8,11.5-4.7,18.1c-0.5,3.1-0.8,6.4-0.9,9.8l405.8,159.3c3.3,1.3,4.9,5,3.6,8.2
	c-1.3,3.3-5,4.9-8.2,3.6l-401-157.4c0.5,7.6,1.8,15.8,3.8,24.7l452.6,177.6c3.3,1.3,4.9,5,3.6,8.2c-1.3,3.3-5,4.9-8.2,3.6
	l-443.8-174.2c3,9.7,6.8,20,11.6,31.2l539,211.5c3.3,1.3,4.9,5,3.6,8.2c-1.3,3.3-5,4.9-8.2,3.6l-526.8-206.7
	c5.1,10.5,11,21.7,17.7,33.6l545.8,214.2c3.3,1.3,4.9,5,3.6,8.2c-1.3,3.3-5,4.9-8.2,3.6l-530.8-208.3c1.6,2.6,3.2,5.2,4.8,7.8
	c7.8,12.5,16.7,22.7,26.3,31.1l533.9,209.5c3.3,1.3,4.9,5,3.6,8.2c-1.3,3.3-5,4.9-8.2,3.6l-381.4-149.7
	c15.6,10.4,29.5,23.8,40.6,42.6l314.2,123.3c3.3,1.3,4.9,5,3.6,8.2c-1.3,3.3-5,4.9-8.2,3.6L1953.9,1309c3.9,9.1,7.3,19.3,10.1,30.6
	l356.6,139.9c3.3,1.3,4.9,5,3.6,8.2c-1.3,3.3-5,4.9-8.2,3.6l-348.8-136.9c1.6,8.7,2.9,18,3.8,27.9l0,0.3l376.6,147.8
	c3.3,1.3,4.9,5,3.6,8.2c-1.3,3.3-5,4.9-8.2,3.6l-369.8-145.1c2.1,10.4,5.3,20.5,9.5,30.4l339.6,133.3c3.3,1.3,4.9,5,3.6,8.2
	c-1.3,3.3-5,4.9-8.2,3.6l-326.7-128.2c6.9,12.6,15.3,24.7,24.9,36.4l320.3,125.7c3.3,1.3,4.9,5,3.6,8.2c-1.3,3.3-5,4.9-8.2,3.6
	l-296.8-116.5c16.4,16.9,34.8,32.8,54.1,47.9l184.8,72.5c3.3,1.3,4.9,5,3.6,8.2c-1.3,3.3-5,4.9-8.2,3.6l-141-55.3
	c15.8,11.2,31.7,21.9,46.8,32.1c35.3,23.8,67.1,45.3,88.6,65.9c5.4,5.2,5.6,13.8,0.4,19.2c-5.2,5.4-13.8,5.6-19.2,0.4
	c-19.6-18.8-50.6-39.7-85-63c-91.2-61.6-205.2-138.6-215.6-248.5c-9.7-102.4-61.6-121.1-116.2-140.7
	c-43.4-15.6-88.4-31.8-120.3-83.2c-55.2-88.8-69.1-147.4-63.1-188.7c0.6-3.9,1.3-7.7,2.2-11.4c-7.6,4.9-15.7,9.7-24.1,14.4l10,5.3
	c3.1,1.6,4.3,5.5,2.7,8.6c-1.6,3.1-5.5,4.3-8.6,2.7l-17.7-9.3c-7.5,3.8-15.4,7.5-23.6,11l21.5,11.3c3.1,1.6,4.3,5.5,2.7,8.6
	c-1.6,3.1-5.5,4.3-8.6,2.7l-31-16.3c-8.6,3.3-17.6,6.4-27,9.3l49.7,26.1c3.1,1.6,4.3,5.5,2.7,8.6c-1.6,3.1-5.5,4.3-8.6,2.7
	l-61.5-32.3c-2.1,0.6-4.2,1.1-6.4,1.6h-0.1c-8.1,2-15.7,4.1-22.8,6.5l90.5,47.6c3.1,1.6,4.3,5.5,2.7,8.6c-1.6,3.1-5.5,4.3-8.6,2.7
	l-100.7-53c-8.6,3.4-16.5,7.1-23.7,11l125.1,65.8c3.1,1.6,4.3,5.5,2.7,8.6c-1.6,3.1-5.5,4.3-8.6,2.7l-132.1-69.4
	c-6.8,4.3-12.9,8.9-18.7,13.7l185.1,97.3c3.1,1.6,4.3,5.5,2.7,8.6c-1.6,3.1-5.5,4.3-8.6,2.7l-189.3-99.5
	c-5.3,5.1-10.1,10.3-14.7,15.7l236.8,124.5c3.1,1.6,4.3,5.5,2.7,8.6c-1.6,3.1-5.5,4.3-8.6,2.7l-239-125.6c-4.3,5.6-8.3,11.2-12.3,17
	l257.3,135.2c3.1,1.6,4.3,5.5,2.7,8.6c-1.6,3.1-5.5,4.3-8.6,2.7l-258.6-135.9l-3.1,4.7c-2.8,4.2-5.7,8.4-8.6,12.7l341.2,179.4
	c3.1,1.6,4.3,5.5,2.7,8.6c-1.6,3.1-5.5,4.3-8.6,2.7l-342.6-180.1c-4,5.6-8.2,11.3-12.6,16.9l303.8,159.7c3.1,1.6,4.3,5.5,2.7,8.6
	c-1.6,3.1-5.5,4.3-8.6,2.7L1332,1177.3c-4.5,5.3-9.3,10.6-14.5,15.8l257.2,135.2c3.1,1.6,4.3,5.5,2.7,8.6c-1.6,3.1-5.5,4.3-8.6,2.7
	l-260.9-137.2c-5.3,4.9-11,9.7-17.2,14.4l220.6,115.9c3.1,1.6,4.3,5.5,2.7,8.6c-1.6,3.1-5.5,4.3-8.6,2.7l-226.1-118.8
	c-6.3,4.4-13.1,8.6-20.3,12.8l186.9,98.2c3.1,1.6,4.3,5.5,2.7,8.6c-1.6,3.1-5.5,4.3-8.6,2.7l-194.4-102.2
	c-7.4,3.8-15.2,7.5-23.6,11.1l179.6,94.4c3.1,1.6,4.3,5.5,2.7,8.6c-1.6,3.1-5.5,4.3-8.6,2.7l-188.7-99.2l-0.3-0.2
	c-2.5,0.9-5,1.9-7.5,2.8c9.8,9,19.6,19.1,29.4,30.6l107.7,56.6c3.1,1.6,4.3,5.5,2.7,8.6c-1.6,3.1-5.5,4.3-8.6,2.7l-81.7-42.9
	c73.4,92,162.1,124.9,248.3,156.8c104.2,38.6,204.9,75.9,274.9,209.2c3.5,6.6,0.9,14.9-5.7,18.4c-6.6,3.5-14.9,0.9-18.4-5.7
	c-65.1-124.1-161-159.6-260.2-196.3c-91.6-33.9-186-68.9-265.1-171.7c-44.9-58.4-89.7-85.5-132.6-93.6c4.5,5.5,8.3,11.8,11.2,18.8
	l68,35.7c3.1,1.6,4.3,5.5,2.7,8.6c-1.6,3.1-5.5,4.3-8.6,2.7l-57.3-30.1c1.2,7.3,1.5,15,0.6,23.2l104.4,54.9c3.1,1.6,4.3,5.5,2.7,8.6
	c-1.6,3.1-5.5,4.3-8.6,2.7l-100.8-53c-0.3,1.1-0.5,2.2-0.9,3.3c-1.5,5.4-3.5,10.9-6,16.6c0.2,0.1,0.4,0.2,0.6,0.3l138.5,72.8
	c3.1,1.6,4.3,5.5,2.7,8.6c-1.6,3.1-5.5,4.3-8.6,2.7l-138.5-72.8l-0.3-0.2c-3.1,5.7-6.8,11.6-11.1,17.6l180.9,95.1
	c3.1,1.6,4.3,5.5,2.7,8.6c-1.6,3.1-5.5,4.3-8.6,2.7l-182.7-96c-4.2,5.3-8.9,10.6-14.1,16.1l221.5,116.4c3.1,1.6,4.3,5.5,2.7,8.6
	c-1.6,3.1-5.5,4.3-8.6,2.7l-224.9-118.2c-5.1,4.9-10.5,9.8-16.4,14.9l263.1,138.3c3.1,1.6,4.3,5.5,2.7,8.6c-1.6,3.1-5.5,4.3-8.6,2.7
	l-267.8-140.8c-5.7,4.6-11.8,9.2-18.3,13.9l333.4,175.2c3.1,1.6,4.3,5.5,2.7,8.6c-1.6,3.1-5.5,4.3-8.6,2.7l-339.1-178.3
	c-6.3,4.3-12.9,8.7-19.9,13l316.8,166.5c3.1,1.6,4.3,5.5,2.7,8.6c-1.6,3.1-5.5,4.3-8.6,2.7L960,1461c-2,1.2-4.1,2.4-6.2,3.7
	c-5,3-9.9,5.9-14.5,8.9l278.9,146.6c3.1,1.6,4.3,5.5,2.7,8.6c-1.6,3.1-5.5,4.3-8.6,2.7l-284.9-149.7c-6.5,4.6-12.6,9.3-18.1,13.9
	l255.7,134.4c3.1,1.6,4.3,5.5,2.7,8.6c-1.6,3.1-5.5,4.3-8.6,2.7l-259.9-136.6c-5.5,5.3-10.4,10.6-14.6,15.8l217.6,114.4
	c3.1,1.6,4.3,5.5,2.7,8.6c-1.6,3.1-5.5,4.3-8.6,2.7L877.2,1531c-4.3,6.8-7.4,13.6-9.1,20.2l140.3,73.8c3.1,1.6,4.3,5.5,2.7,8.6
	c-1.6,3.1-5.5,4.3-8.6,2.7l-136.2-71.6l0,1.4c0.6,12.5,6.7,24.8,18.9,36.5c14.5,13.8,37.2,26.6,68.9,37.5c8.2,2.8,26.4,5.2,48,8
	c58.3,7.6,138.9,18.1,152.8,58.1c2.4,7.1-1.3,14.8-8.4,17.3c-7.1,2.4-14.8-1.3-17.3-8.4c-8.3-24.1-79.3-33.3-130.6-40h-0.1
	c-23-3-42.4-5.5-53.4-9.3c-35.6-12.3-61.6-27.1-78.8-43.5c-17.6-16.8-26.5-35.4-27.3-55c-0.9-19.2,6.1-38.7,19.9-57.9
	c16.9-23.4,44.5-46.5,80.9-68c88.9-52.2,127-98.9,136.9-135.2c3.7-13.6,3.3-25.5,0.2-35.3c-3.1-9.5-8.8-17.3-15.8-23
	c-8-6.5-17.7-10.2-26.9-10.6c-57.3,8.7-109.2,44.2-150.7,72.6c-8.9,6.1-17.3,11.8-26,17.5c-5.3,3.4-15.1,8.9-29.2,16.8
	C754.1,1385.8,560.6,1494.1,403.1,1641.5z"/>
</svg>
